<svg class="logo-preview-svg" fill="none" viewBox="0 0 70 70" xmlns="http://www.w3.org/2000/svg"><path d="M38.9208 6.48499e-05C38.3683 6.48499e-05 37.9178 0.449142 37.9178 1.00306C37.9178 1.55697 37.9178 10.8035 37.9178 10.8035C37.9178 11.356 38.3669 11.7816 38.9208 11.7816L43.6801 11.8065C45.6464 11.8065 47.5193 12.5743 48.9543 13.9669C50.3979 15.3694 51.204 17.2209 51.2267 19.183C51.2493 21.1933 50.4829 23.0859 49.0705 24.5139C47.6581 25.9419 45.7739 26.7281 43.7651 26.7281H43.6801C41.7181 26.7055 39.8665 25.8994 38.464 24.4558C37.0714 23.0222 36.2815 21.1479 36.2815 19.1816V14.3664C36.2815 13.8139 35.8545 13.4179 35.3006 13.4179H25.503C24.9505 13.4179 24.5 13.8125 24.5 14.3664V24.1668C24.5 24.7193 24.9491 25.1994 25.503 25.1994H33.2365C34.2764 25.1994 34.9464 25.184 35.4989 25.2591C36.2328 25.3582 36.7243 25.5679 37.0955 25.9376C37.4667 26.3074 37.6749 26.8004 37.7741 27.5342C37.8492 28.0881 37.9178 28.7568 37.9178 29.798V37.5301C37.9178 38.0826 38.3124 38.6172 38.8663 38.6172H43.7665C45.9666 38.6172 48.127 38.1634 50.1882 37.4352C57.8708 34.7195 63.0331 27.418 63.0331 19.2666C63.0331 11.1152 57.8708 3.81371 50.1882 1.09797C48.127 0.369812 45.9666 6.48499e-05 43.7665 6.48499e-05H38.9222H38.9208Z" fill="#333"></path></svg>
