<svg width="14" height="14" viewBox="0 0 14 14" fill="none" xmlns="http://www.w3.org/2000/svg">
<path d="M7.00065 7.58268C7.32282 7.58268 7.58398 7.32152 7.58398 6.99935C7.58398 6.67718 7.32282 6.41602 7.00065 6.41602C6.67848 6.41602 6.41732 6.67718 6.41732 6.99935C6.41732 7.32152 6.67848 7.58268 7.00065 7.58268Z" stroke="#67717C" stroke-linecap="round" stroke-linejoin="round"/>
<path d="M11.084 7.58268C11.4062 7.58268 11.6673 7.32152 11.6673 6.99935C11.6673 6.67718 11.4062 6.41602 11.084 6.41602C10.7618 6.41602 10.5007 6.67718 10.5007 6.99935C10.5007 7.32152 10.7618 7.58268 11.084 7.58268Z" stroke="#67717C" stroke-linecap="round" stroke-linejoin="round"/>
<path d="M2.91732 7.58268C3.23948 7.58268 3.50065 7.32152 3.50065 6.99935C3.50065 6.67718 3.23948 6.41602 2.91732 6.41602C2.59515 6.41602 2.33398 6.67718 2.33398 6.99935C2.33398 7.32152 2.59515 7.58268 2.91732 7.58268Z" stroke="#67717C" stroke-linecap="round" stroke-linejoin="round"/>
</svg>
