<svg width="14" height="14" viewBox="0 0 14 14" fill="none" xmlns="http://www.w3.org/2000/svg">
<path d="M9.91732 11.0827C9.76261 11.0827 9.61423 11.0212 9.50484 10.9118C9.39544 10.8024 9.33398 10.6541 9.33398 10.4993V9.33268C9.33398 9.02326 9.4569 8.72652 9.67569 8.50772C9.89449 8.28893 10.1912 8.16602 10.5007 8.16602H11.6673C11.9767 8.16602 12.2735 8.28893 12.4923 8.50772C12.7111 8.72652 12.834 9.02326 12.834 9.33268V10.4993C12.834 10.6541 12.7725 10.8024 12.6631 10.9118C12.5537 11.0212 12.4054 11.0827 12.2507 11.0827H9.91732Z" stroke="#BF9595" stroke-linecap="round" stroke-linejoin="round"/>
<path d="M9.91602 12.2507V11.084" stroke="#BF9595" stroke-linecap="round" stroke-linejoin="round"/>
<path d="M11.0827 8.16667V3.79167C11.0827 3.25018 10.8676 2.73088 10.4847 2.34799C10.1018 1.9651 9.5825 1.75 9.04102 1.75C8.49953 1.75 7.98023 1.9651 7.59734 2.34799C7.21445 2.73088 6.99935 3.25018 6.99935 3.79167V10.2083C6.99935 10.7498 6.78425 11.2691 6.40136 11.652C6.01847 12.0349 5.49917 12.25 4.95768 12.25C4.4162 12.25 3.89689 12.0349 3.51401 11.652C3.13112 11.2691 2.91602 10.7498 2.91602 10.2083V5.83333" stroke="#BF9595" stroke-linecap="round" stroke-linejoin="round"/>
<path d="M12.25 12.2507V11.084" stroke="#BF9595" stroke-linecap="round" stroke-linejoin="round"/>
<path d="M1.75 2.91667V1.75" stroke="#BF9595" stroke-linecap="round" stroke-linejoin="round"/>
<path d="M2.33268 5.83268C2.02326 5.83268 1.72652 5.70977 1.50772 5.49097C1.28893 5.27218 1.16602 4.97544 1.16602 4.66602V3.49935C1.16602 3.34464 1.22747 3.19627 1.33687 3.08687C1.44627 2.97747 1.59464 2.91602 1.74935 2.91602H4.08268C4.23739 2.91602 4.38576 2.97747 4.49516 3.08687C4.60456 3.19627 4.66602 3.34464 4.66602 3.49935V4.66602C4.66602 4.97544 4.5431 5.27218 4.32431 5.49097C4.10551 5.70977 3.80877 5.83268 3.49935 5.83268H2.33268Z" stroke="#BF9595" stroke-linecap="round" stroke-linejoin="round"/>
<path d="M4.08398 2.91667V1.75" stroke="#BF9595" stroke-linecap="round" stroke-linejoin="round"/>
</svg>
